<?xml version="1.0" ?><!DOCTYPE svg  PUBLIC '-//W3C//DTD SVG 1.1//EN'  'http://www.w3.org/Graphics/SVG/1.1/DTD/svg11.dtd'>
<svg height="128px" width="128px" enable-background="new 0 0 106 106" id="Layer_1" version="1.1" viewBox="0 0 106 106" xml:space="preserve" xmlns="http://www.w3.org/2000/svg" xmlns:xlink="http://www.w3.org/1999/xlink"><circle cx="53" cy="53" fill="#F7D9B3" r="50"/><g><g><path d="M71.8,42.7c0,9.6-8.5,38.7-19,38.7s-19-29.1-19-38.7    s8.5-17.5,19-17.5S71.8,33.1,71.8,42.7z" fill="#FCEE21" stroke="#FFFF00" stroke-miterlimit="10"/><rect fill="#999999" height="8.8" width="13.8" x="46.1" y="77.5"/><polygon fill="#E6E6E6" points="58.4,86.3 47.6,86.3 48.4,87.9 57.6,87.9   "/></g><line fill="none" stroke="#FFFF00" stroke-miterlimit="10" stroke-width="2" x1="53" x2="53" y1="15" y2="20"/><line fill="none" stroke="#FFFF00" stroke-miterlimit="10" stroke-width="2" x1="34.2" x2="37.8" y1="19.7" y2="23.3"/><line fill="none" stroke="#FFFF00" stroke-miterlimit="10" stroke-width="2" x1="71.8" x2="68.2" y1="19.7" y2="23.3"/><line fill="none" stroke="#FFFF00" stroke-miterlimit="10" stroke-width="2" x1="85" x2="80" y1="35" y2="35"/><line fill="none" stroke="#FFFF00" stroke-miterlimit="10" stroke-width="2" x1="26" x2="21" y1="35" y2="35"/><line fill="none" stroke="#FFFF00" stroke-miterlimit="10" stroke-width="2" x1="85" x2="80" y1="48" y2="48"/><line fill="none" stroke="#FFFF00" stroke-miterlimit="10" stroke-width="2" x1="26" x2="21" y1="48" y2="48"/></g></svg>